<?xml version="1.0" encoding="UTF-8" standalone="no"?>
<svg
   xmlns:dc="http://purl.org/dc/elements/1.1/"
   xmlns:cc="http://creativecommons.org/ns#"
   xmlns:rdf="http://www.w3.org/1999/02/22-rdf-syntax-ns#"
   xmlns:svg="http://www.w3.org/2000/svg"
   xmlns="http://www.w3.org/2000/svg"
   viewBox="0 0 1359.4667 1359.4667"
   height="1359.4667"
   width="1359.4667"
   xml:space="preserve"
   id="svg2"
   version="1.1"><metadata
     id="metadata8"><rdf:RDF><cc:Work
         rdf:about=""><dc:format>image/svg+xml</dc:format><dc:type
           rdf:resource="http://purl.org/dc/dcmitype/StillImage" /></cc:Work></rdf:RDF></metadata><defs
     id="defs6" /><g
     transform="matrix(1.3333333,0,0,-1.3333333,0,1359.4667)"
     id="g10"><g
       transform="scale(0.1)"
       id="g12"><path
         id="path14"
         style="fill:#100f0d;fill-opacity:1;fill-rule:nonzero;stroke:none"
         d="M 10196,5098.01 C 10196,2282.47 7913.53,0 5097.99,0 2282.45,0 0,2282.47 0,5098.01 0,7913.55 2282.45,10196 5097.99,10196 7913.53,10196 10196,7913.55 10196,5098.01" /><path
         id="path16"
         style="fill:#3f5585;fill-opacity:1;fill-rule:nonzero;stroke:none"
         d="M 7427.83,4817.13 H 1672.71 c -93.89,0 -170,76.11 -170,170 v 137.5 c 0,93.89 76.11,170 170,170 h 5755.12 c 93.89,0 170,-76.11 170,-170 v -137.5 c 0,-93.89 -76.11,-170 -170,-170" /><g
         transform="scale(10)"
         id="g18"><text
           id="text22"
           style="font-variant:normal;font-weight:normal;font-size:105.67199707px;font-family:Roobek;-inkscape-font-specification:Roobek-Regular;writing-mode:lr-tb;fill:#3f5585;fill-opacity:1;fill-rule:nonzero;stroke:none"
           transform="matrix(1,0,0,-1,763.996,478.496)"><tspan
             id="tspan20"
             y="0"
             x="0 65.831993">na</tspan></text>
</g><path
         id="path24"
         style="fill:#ffffff;fill-opacity:1;fill-rule:nonzero;stroke:none"
         d="m 1059.04,6913.96 h 610.46 c 343.12,0 572.55,-206.29 572.55,-536.77 0,-332.6 -221.01,-528.37 -549.4,-528.37 h -170.5 v 294.71 h 128.4 c 132.62,0 223.14,77.88 223.14,233.66 0,149.45 -101.05,242.06 -252.6,242.06 H 1416.9 l 1.55,-2026.82 H 1053.3 l 5.74,2321.53" /><path
         id="path26"
         style="fill:#ffffff;fill-opacity:1;fill-rule:nonzero;stroke:none"
         d="m 2332.63,6913.96 h 610.46 c 343.12,0 572.56,-181.04 572.56,-469.42 0,-145.24 -54.73,-261.02 -149.46,-341.01 101.04,-96.84 172.62,-233.66 172.62,-399.95 l 0.29,-268.51 H 3188 l -7.05,296.6 c 0,142.41 -109.46,249.76 -263.12,249.76 h -122.09 v 294.71 h 128.4 c 132.62,0 223.14,56.83 223.14,168.4 0,107.36 -101.05,174.71 -252.6,174.71 h -204.19 v -1178.8 h -357.86 v 1473.51" /><path
         id="path28"
         style="fill:#ffffff;fill-opacity:1;fill-rule:nonzero;stroke:none"
         d="m 4086.17,7172.88 298.9,389.42 178.94,-178.92 -387.33,-298.92 z m 494.67,-1737.81 v 813.7 c 0,244.18 -107.35,368.39 -258.91,368.39 -143.14,0 -246.29,-111.57 -256.81,-330.49 h 410.47 v -294.71 h -410.47 v -551.51 h -357.86 v 921.99 c 0,315.76 210.51,551.52 538.88,551.52 h 153.68 c 326.27,0 538.88,-235.76 538.88,-551.52 v -927.37 h -357.86" /><path
         id="path30"
         style="fill:#ffffff;fill-opacity:1;fill-rule:nonzero;stroke:none"
         d="m 5014.56,6913.96 h 1115.65 v -294.71 h -378.9 v -1178.8 h -357.85 v 1178.8 h -378.9 v 294.71" /><path
         id="path32"
         style="fill:#ffffff;fill-opacity:1;fill-rule:nonzero;stroke:none"
         d="m 6277.6,6913.96 h 359.97 V 5440.45 H 6277.6 v 1473.51" /><path
         id="path34"
         style="fill:#ffffff;fill-opacity:1;fill-rule:nonzero;stroke:none"
         d="m 7483.8,5440.45 c -406.26,0 -677.8,271.54 -677.8,732.55 0,458.89 271.54,740.96 677.8,740.96 h 492.58 v -294.71 h -471.53 c -197.86,0 -330.48,-174.71 -330.48,-446.25 0,-284.19 132.62,-437.85 330.48,-437.85 h 492.59 v -294.7 H 7483.8" /><path
         id="path36"
         style="fill:#ffffff;fill-opacity:1;fill-rule:nonzero;stroke:none"
         d="m 9002.23,4606.47 -4.87,1642.3 c 0,244.18 -107.34,368.39 -258.91,368.39 -143.14,0 -246.29,-111.57 -256.81,-330.49 h 410.47 v -294.71 h -410.47 v -551.51 h -357.86 v 921.99 c 0,315.76 210.51,551.52 538.88,551.52 h 153.68 c 326.28,0 538.88,-235.76 538.88,-551.52 l -1.89,-2275.6 -351.1,519.63" /><path
         id="path38"
         style="fill:#ffffff;fill-opacity:1;fill-rule:nonzero;stroke:none"
         d="m 1053.3,4666.91 h 616.2 c 343.12,0 572.55,-206.28 572.55,-536.77 0,-332.6 -221.01,-528.37 -549.4,-528.37 h -170.5 v 294.71 h 128.4 c 132.62,0 223.14,77.89 223.14,233.66 0,149.45 -101.05,242.07 -252.6,242.07 H 1416.9 V 3193.4 h -363.6 v 1473.51" /><path
         id="path40"
         style="fill:#ffffff;fill-opacity:1;fill-rule:nonzero;stroke:none"
         d="m 2332.63,4666.91 h 610.46 c 343.12,0 572.56,-181.03 572.56,-469.42 0,-145.24 -54.73,-261.02 -149.46,-341 101.04,-96.84 172.62,-233.66 172.62,-399.96 l 0.29,-268.51 H 3188 l -7.05,268.51 c 0,170.51 -109.46,277.85 -263.12,277.85 h -122.09 v 294.71 h 128.4 c 132.62,0 223.14,56.83 223.14,168.4 0,107.36 -101.05,174.72 -252.6,174.72 H 2690.49 V 3193.4 h -357.86 v 1473.51" /><path
         id="path42"
         style="fill:#ffffff;fill-opacity:1;fill-rule:nonzero;stroke:none"
         d="m 4086.17,4925.84 298.9,389.42 178.94,-178.93 -387.33,-298.91 z m 492.19,-1737.82 2.48,813.71 c 0,244.18 -107.35,368.38 -258.91,368.38 -143.14,0 -246.29,-111.57 -256.81,-330.49 h 410.47 v -294.7 H 4065.12 V 3193.4 h -357.86 v 922 c 0,315.75 210.51,551.51 538.88,551.51 h 153.68 c 326.27,0 538.88,-235.76 538.88,-551.51 l 4.8,-927.38 h -365.14" /><path
         id="path44"
         style="fill:#ffffff;fill-opacity:1;fill-rule:nonzero;stroke:none"
         d="m 5014.56,4666.91 h 1115.65 v -294.7 h -378.9 V 3193.4 h -357.85 v 1178.81 h -378.9 v 294.7" /><path
         id="path46"
         style="fill:#ffffff;fill-opacity:1;fill-rule:nonzero;stroke:none"
         d="m 6277.6,4666.91 h 359.97 V 3193.4 H 6277.6 v 1473.51" /><path
         id="path48"
         style="fill:#ffffff;fill-opacity:1;fill-rule:nonzero;stroke:none"
         d="m 7483.8,3193.4 c -406.26,0 -677.8,271.54 -677.8,732.55 0,458.89 271.54,740.96 677.8,740.96 h 492.58 v -294.7 h -471.53 c -197.86,0 -330.48,-174.72 -330.48,-446.26 0,-284.18 132.62,-437.84 330.48,-437.84 h 492.59 V 3193.4 H 7483.8" /><path
         id="path50"
         style="fill:#ffffff;fill-opacity:1;fill-rule:nonzero;stroke:none"
         d="m 9002.23,3202.07 -4.87,799.66 c 0,244.18 -107.34,368.38 -258.91,368.38 -143.14,0 -246.29,-111.57 -256.81,-330.49 h 410.47 v -294.7 H 8481.64 V 3193.4 h -357.86 v 922 c 0,315.75 210.51,551.51 538.88,551.51 h 153.68 c 326.28,0 538.88,-235.76 538.88,-551.51 l -1.89,-913.33 h -351.1" /></g></g></svg>