<?xml version="1.0" encoding="UTF-8" standalone="no"?>
<svg
   xmlns:dc="http://purl.org/dc/elements/1.1/"
   xmlns:cc="http://creativecommons.org/ns#"
   xmlns:rdf="http://www.w3.org/1999/02/22-rdf-syntax-ns#"
   xmlns:svg="http://www.w3.org/2000/svg"
   xmlns="http://www.w3.org/2000/svg"
   viewBox="0 0 1384.1733 1384.1733"
   height="1384.1733"
   width="1384.1733"
   xml:space="preserve"
   id="svg2"
   version="1.1"><metadata
     id="metadata8"><rdf:RDF><cc:Work
         rdf:about=""><dc:format>image/svg+xml</dc:format><dc:type
           rdf:resource="http://purl.org/dc/dcmitype/StillImage" /></cc:Work></rdf:RDF></metadata><defs
     id="defs6" /><g
     transform="matrix(1.3333333,0,0,-1.3333333,0,1384.1733)"
     id="g10"><g
       transform="scale(0.1)"
       id="g12"><path
         id="path14"
         style="fill:#ffffff;fill-opacity:1;fill-rule:nonzero;stroke:none"
         d="M 10366.3,5190.65 C 10366.3,2332.21 8049.09,15 5190.65,15 2332.22,15 15,2332.21 15,5190.65 c 0,2858.43 2317.22,5175.65 5175.65,5175.65 2858.44,0 5175.65,-2317.22 5175.65,-5175.65" /><path
         id="path16"
         style="fill:none;stroke:#100f0d;stroke-width:30;stroke-linecap:butt;stroke-linejoin:miter;stroke-miterlimit:10;stroke-dasharray:none;stroke-opacity:1"
         d="M 10366.3,5190.65 C 10366.3,2332.21 8049.09,15 5190.65,15 2332.22,15 15,2332.21 15,5190.65 c 0,2858.43 2317.22,5175.65 5175.65,5175.65 2858.44,0 5175.65,-2317.22 5175.65,-5175.65 z" /><path
         id="path18"
         style="fill:#3f5585;fill-opacity:1;fill-rule:nonzero;stroke:none"
         d="M 7444.51,5033.81 H 1596.54 c -93.89,0 -170,76.11 -170,170 v 144.77 c 0,93.89 76.11,170 170,170 h 5847.97 c 93.89,0 170,-76.11 170,-170 v -144.77 c 0,-93.89 -76.11,-170 -170,-170" /><g
         transform="scale(10)"
         id="g20"><text
           id="text24"
           style="font-variant:normal;font-weight:normal;font-size:107.28199768px;font-family:Roobek;-inkscape-font-specification:Roobek-Regular;writing-mode:lr-tb;fill:#3f5585;fill-opacity:1;fill-rule:nonzero;stroke:none"
           transform="matrix(1,0,0,-1,765.729,500.115)"><tspan
             id="tspan22"
             y="0"
             x="0 66.83493">na</tspan></text>
</g><path
         id="path26"
         style="fill:#100f0d;fill-opacity:1;fill-rule:nonzero;stroke:none"
         d="m 976.105,7162.58 h 619.765 c 348.35,0 581.28,-209.43 581.28,-544.95 0,-337.67 -224.39,-536.41 -557.78,-536.41 h -173.1 v 299.19 h 130.36 c 134.64,0 226.54,79.07 226.54,237.22 0,151.73 -102.59,245.76 -256.45,245.76 h -207.3 l 1.57,-2057.71 H 970.285 l 5.82,2356.9" /><path
         id="path28"
         style="fill:#100f0d;fill-opacity:1;fill-rule:nonzero;stroke:none"
         d="m 2269.1,7162.58 h 619.76 c 348.35,0 581.28,-183.79 581.28,-476.57 0,-147.45 -55.56,-265 -151.73,-346.2 102.58,-98.32 175.25,-237.22 175.25,-406.05 l 0.29,-272.6 H 3137.5 l -7.16,301.12 c 0,144.58 -111.12,253.56 -267.12,253.56 h -123.95 v 299.2 h 130.35 c 134.64,0 226.54,57.7 226.54,170.97 0,109 -102.59,177.38 -256.45,177.38 h -207.3 V 5666.62 H 2269.1 v 1495.96" /><path
         id="path30"
         style="fill:#100f0d;fill-opacity:1;fill-rule:nonzero;stroke:none"
         d="m 4049.36,7425.45 303.45,395.35 181.67,-181.65 -393.24,-303.47 z m 502.2,-1764.29 v 826.1 c 0,247.9 -108.98,374 -262.85,374 -145.32,0 -250.05,-113.27 -260.72,-335.53 h 416.72 v -299.19 h -416.72 v -559.92 h -363.32 v 936.04 c 0,320.57 213.72,559.92 547.1,559.92 h 156.01 c 331.25,0 547.1,-239.35 547.1,-559.92 v -941.5 h -363.32" /><path
         id="path32"
         style="fill:#100f0d;fill-opacity:1;fill-rule:nonzero;stroke:none"
         d="M 4991.89,7162.58 H 6124.54 V 6863.39 H 5739.86 V 5666.62 h -363.3 v 1196.77 h -384.67 v 299.19" /><path
         id="path34"
         style="fill:#100f0d;fill-opacity:1;fill-rule:nonzero;stroke:none"
         d="m 6274.18,7162.58 h 365.44 V 5666.62 h -365.44 v 1495.96" /><path
         id="path36"
         style="fill:#100f0d;fill-opacity:1;fill-rule:nonzero;stroke:none"
         d="m 7498.75,5666.62 c -412.45,0 -688.13,275.68 -688.13,743.71 0,465.88 275.68,752.25 688.13,752.25 h 500.09 v -299.19 h -478.72 c -200.88,0 -335.52,-177.38 -335.52,-453.06 0,-288.51 134.64,-444.52 335.52,-444.52 h 500.09 v -299.19 h -521.46" /><path
         id="path38"
         style="fill:#100f0d;fill-opacity:1;fill-rule:nonzero;stroke:none"
         d="m 9040.31,4819.94 -4.94,1667.32 c 0,247.9 -108.98,374 -262.86,374 -145.32,0 -250.04,-113.27 -260.72,-335.53 h 416.73 v -299.19 h -416.73 v -559.92 h -363.31 v 936.04 c 0,320.57 213.71,559.92 547.09,559.92 h 156.02 c 331.25,0 547.09,-239.35 547.09,-559.92 l -1.92,-2310.27 -356.45,527.55" /><path
         id="path40"
         style="fill:#100f0d;fill-opacity:1;fill-rule:nonzero;stroke:none"
         d="m 970.285,4881.3 h 625.585 c 348.35,0 581.28,-209.43 581.28,-544.95 0,-337.66 -224.39,-536.41 -557.78,-536.41 h -173.1 v 299.19 h 130.36 c 134.64,0 226.54,79.07 226.54,237.22 0,151.73 -102.59,245.76 -256.45,245.76 h -207.3 V 3385.34 H 970.285 V 4881.3" /><path
         id="path42"
         style="fill:#100f0d;fill-opacity:1;fill-rule:nonzero;stroke:none"
         d="m 2269.1,4881.3 h 619.76 c 348.35,0 581.28,-183.79 581.28,-476.57 0,-147.45 -55.56,-265 -151.73,-346.2 102.58,-98.32 175.25,-237.22 175.25,-406.05 l 0.29,-272.6 H 3137.5 l -7.16,272.6 c 0,173.1 -111.12,282.09 -267.12,282.09 h -123.95 v 299.19 h 130.35 c 134.64,0 226.54,57.7 226.54,170.97 0,109 -102.59,177.38 -256.45,177.38 h -207.3 V 3385.34 H 2269.1 V 4881.3" /><path
         id="path44"
         style="fill:#100f0d;fill-opacity:1;fill-rule:nonzero;stroke:none"
         d="m 4049.36,5144.17 303.45,395.35 181.67,-181.65 -393.24,-303.47 z m 499.68,-1764.29 2.52,826.1 c 0,247.9 -108.98,374 -262.85,374 -145.32,0 -250.05,-113.27 -260.72,-335.53 h 416.72 v -299.19 h -416.72 v -559.92 h -363.32 v 936.04 c 0,320.57 213.72,559.92 547.1,559.92 h 156.01 c 331.25,0 547.1,-239.35 547.1,-559.92 l 4.87,-941.5 h -370.71" /><path
         id="path46"
         style="fill:#100f0d;fill-opacity:1;fill-rule:nonzero;stroke:none"
         d="M 4991.89,4881.3 H 6124.54 V 4582.11 H 5739.86 V 3385.34 h -363.3 v 1196.77 h -384.67 v 299.19" /><path
         id="path48"
         style="fill:#100f0d;fill-opacity:1;fill-rule:nonzero;stroke:none"
         d="m 6274.18,4881.3 h 365.44 V 3385.34 H 6274.18 V 4881.3" /><path
         id="path50"
         style="fill:#100f0d;fill-opacity:1;fill-rule:nonzero;stroke:none"
         d="m 7498.75,3385.34 c -412.45,0 -688.13,275.68 -688.13,743.71 0,465.88 275.68,752.25 688.13,752.25 h 500.09 v -299.19 h -478.72 c -200.88,0 -335.52,-177.38 -335.52,-453.06 0,-288.51 134.64,-444.51 335.52,-444.51 h 500.09 v -299.2 h -521.46" /><path
         id="path52"
         style="fill:#100f0d;fill-opacity:1;fill-rule:nonzero;stroke:none"
         d="m 9040.31,3394.14 -4.94,811.84 c 0,247.9 -108.98,374 -262.86,374 -145.32,0 -250.04,-113.27 -260.72,-335.53 h 416.73 v -299.19 h -416.73 v -559.92 h -363.31 v 936.04 c 0,320.57 213.71,559.92 547.09,559.92 h 156.02 c 331.25,0 547.09,-239.35 547.09,-559.92 l -1.92,-927.24 h -356.45" /></g></g></svg>